<mxfile host="app.diagrams.net" modified="2023-03-04T16:57:58.322Z" agent="5.0 (Windows NT 10.0; Win64; x64) AppleWebKit/537.36 (KHTML, like Gecko) Chrome/108.0.0.0 Safari/537.36" etag="nFe6Y0W7hYovwllUm6zo" version="21.0.2" type="github">
  <diagram name="Page-1" id="ESKwlWflOJjkLpQTLM2p">
    <mxGraphModel dx="1434" dy="808" grid="1" gridSize="10" guides="1" tooltips="1" connect="1" arrows="1" fold="1" page="1" pageScale="1" pageWidth="827" pageHeight="1169" math="0" shadow="0">
      <root>
        <mxCell id="0" />
        <mxCell id="1" parent="0" />
        <mxCell id="Jg2JnqgivAytyahi90kR-3" value="" style="rounded=0;whiteSpace=wrap;html=1;fillColor=#dae8fc;strokeColor=#6c8ebf;" vertex="1" parent="1">
          <mxGeometry x="40" y="40" width="750" height="540" as="geometry" />
        </mxCell>
        <mxCell id="Jg2JnqgivAytyahi90kR-2" value="" style="sketch=0;aspect=fixed;html=1;points=[];align=center;image;fontSize=12;image=img/lib/mscae/Kubernetes.svg;" vertex="1" parent="1">
          <mxGeometry x="50" y="50" width="50" height="48" as="geometry" />
        </mxCell>
        <mxCell id="Jg2JnqgivAytyahi90kR-13" style="edgeStyle=orthogonalEdgeStyle;rounded=0;orthogonalLoop=1;jettySize=auto;html=1;exitX=0.005;exitY=0.63;exitDx=0;exitDy=0;exitPerimeter=0;" edge="1" parent="1" source="Jg2JnqgivAytyahi90kR-4" target="Jg2JnqgivAytyahi90kR-9">
          <mxGeometry relative="1" as="geometry" />
        </mxCell>
        <mxCell id="Jg2JnqgivAytyahi90kR-4" value="" style="sketch=0;html=1;dashed=0;whitespace=wrap;fillColor=#2875E2;strokeColor=#ffffff;points=[[0.005,0.63,0],[0.1,0.2,0],[0.9,0.2,0],[0.5,0,0],[0.995,0.63,0],[0.72,0.99,0],[0.5,1,0],[0.28,0.99,0]];verticalLabelPosition=bottom;align=center;verticalAlign=top;shape=mxgraph.kubernetes.icon;prIcon=deploy" vertex="1" parent="1">
          <mxGeometry x="510" y="310" width="50" height="48" as="geometry" />
        </mxCell>
        <mxCell id="Jg2JnqgivAytyahi90kR-5" value="" style="sketch=0;html=1;dashed=0;whitespace=wrap;fillColor=#2875E2;strokeColor=#ffffff;points=[[0.005,0.63,0],[0.1,0.2,0],[0.9,0.2,0],[0.5,0,0],[0.995,0.63,0],[0.72,0.99,0],[0.5,1,0],[0.28,0.99,0]];verticalLabelPosition=bottom;align=center;verticalAlign=top;shape=mxgraph.kubernetes.icon;prIcon=pod" vertex="1" parent="1">
          <mxGeometry x="340" y="232" width="50" height="48" as="geometry" />
        </mxCell>
        <mxCell id="Jg2JnqgivAytyahi90kR-6" value="" style="sketch=0;html=1;dashed=0;whitespace=wrap;fillColor=#2875E2;strokeColor=#ffffff;points=[[0.005,0.63,0],[0.1,0.2,0],[0.9,0.2,0],[0.5,0,0],[0.995,0.63,0],[0.72,0.99,0],[0.5,1,0],[0.28,0.99,0]];verticalLabelPosition=bottom;align=center;verticalAlign=top;shape=mxgraph.kubernetes.icon;prIcon=pod" vertex="1" parent="1">
          <mxGeometry x="340" y="310" width="50" height="48" as="geometry" />
        </mxCell>
        <mxCell id="Jg2JnqgivAytyahi90kR-7" value="" style="sketch=0;html=1;dashed=0;whitespace=wrap;fillColor=#2875E2;strokeColor=#ffffff;points=[[0.005,0.63,0],[0.1,0.2,0],[0.9,0.2,0],[0.5,0,0],[0.995,0.63,0],[0.72,0.99,0],[0.5,1,0],[0.28,0.99,0]];verticalLabelPosition=bottom;align=center;verticalAlign=top;shape=mxgraph.kubernetes.icon;prIcon=pod" vertex="1" parent="1">
          <mxGeometry x="340" y="390" width="50" height="48" as="geometry" />
        </mxCell>
        <mxCell id="Jg2JnqgivAytyahi90kR-14" style="edgeStyle=orthogonalEdgeStyle;rounded=0;orthogonalLoop=1;jettySize=auto;html=1;entryX=0.995;entryY=0.63;entryDx=0;entryDy=0;entryPerimeter=0;" edge="1" parent="1" source="Jg2JnqgivAytyahi90kR-9" target="Jg2JnqgivAytyahi90kR-6">
          <mxGeometry relative="1" as="geometry" />
        </mxCell>
        <mxCell id="Jg2JnqgivAytyahi90kR-15" style="edgeStyle=orthogonalEdgeStyle;rounded=0;orthogonalLoop=1;jettySize=auto;html=1;exitX=0.5;exitY=0;exitDx=0;exitDy=0;entryX=0.995;entryY=0.63;entryDx=0;entryDy=0;entryPerimeter=0;" edge="1" parent="1" source="Jg2JnqgivAytyahi90kR-9" target="Jg2JnqgivAytyahi90kR-5">
          <mxGeometry relative="1" as="geometry" />
        </mxCell>
        <mxCell id="Jg2JnqgivAytyahi90kR-16" style="edgeStyle=orthogonalEdgeStyle;rounded=0;orthogonalLoop=1;jettySize=auto;html=1;exitX=0.5;exitY=1;exitDx=0;exitDy=0;entryX=0.995;entryY=0.63;entryDx=0;entryDy=0;entryPerimeter=0;" edge="1" parent="1" source="Jg2JnqgivAytyahi90kR-9" target="Jg2JnqgivAytyahi90kR-7">
          <mxGeometry relative="1" as="geometry" />
        </mxCell>
        <mxCell id="Jg2JnqgivAytyahi90kR-9" value="repica" style="text;html=1;strokeColor=none;fillColor=none;align=center;verticalAlign=middle;whiteSpace=wrap;rounded=0;" vertex="1" parent="1">
          <mxGeometry x="420" y="325" width="60" height="30" as="geometry" />
        </mxCell>
        <mxCell id="Jg2JnqgivAytyahi90kR-10" value="configmap" style="text;html=1;strokeColor=none;fillColor=none;align=center;verticalAlign=middle;whiteSpace=wrap;rounded=0;" vertex="1" parent="1">
          <mxGeometry x="505" y="168" width="60" height="30" as="geometry" />
        </mxCell>
        <mxCell id="Jg2JnqgivAytyahi90kR-12" style="edgeStyle=orthogonalEdgeStyle;rounded=0;orthogonalLoop=1;jettySize=auto;html=1;exitX=0.5;exitY=1;exitDx=0;exitDy=0;exitPerimeter=0;entryX=0.5;entryY=0;entryDx=0;entryDy=0;entryPerimeter=0;" edge="1" parent="1" source="Jg2JnqgivAytyahi90kR-11" target="Jg2JnqgivAytyahi90kR-4">
          <mxGeometry relative="1" as="geometry" />
        </mxCell>
        <mxCell id="Jg2JnqgivAytyahi90kR-11" value="" style="sketch=0;html=1;dashed=0;whitespace=wrap;fillColor=#2875E2;strokeColor=#ffffff;points=[[0.005,0.63,0],[0.1,0.2,0],[0.9,0.2,0],[0.5,0,0],[0.995,0.63,0],[0.72,0.99,0],[0.5,1,0],[0.28,0.99,0]];verticalLabelPosition=bottom;align=center;verticalAlign=top;shape=mxgraph.kubernetes.icon;prIcon=cm" vertex="1" parent="1">
          <mxGeometry x="510" y="120" width="50" height="48" as="geometry" />
        </mxCell>
        <mxCell id="Jg2JnqgivAytyahi90kR-17" value="1" style="ellipse;whiteSpace=wrap;html=1;aspect=fixed;fontSize=13;fontStyle=1" vertex="1" parent="1">
          <mxGeometry x="520" y="80" width="30" height="30" as="geometry" />
        </mxCell>
        <mxCell id="Jg2JnqgivAytyahi90kR-18" value="deployment" style="text;html=1;strokeColor=none;fillColor=none;align=center;verticalAlign=middle;whiteSpace=wrap;rounded=0;" vertex="1" parent="1">
          <mxGeometry x="505" y="355" width="60" height="30" as="geometry" />
        </mxCell>
        <mxCell id="Jg2JnqgivAytyahi90kR-19" value="pod" style="text;html=1;strokeColor=none;fillColor=none;align=center;verticalAlign=middle;whiteSpace=wrap;rounded=0;" vertex="1" parent="1">
          <mxGeometry x="335" y="280" width="60" height="30" as="geometry" />
        </mxCell>
        <mxCell id="Jg2JnqgivAytyahi90kR-20" value="pod" style="text;html=1;strokeColor=none;fillColor=none;align=center;verticalAlign=middle;whiteSpace=wrap;rounded=0;" vertex="1" parent="1">
          <mxGeometry x="335" y="355" width="60" height="30" as="geometry" />
        </mxCell>
        <mxCell id="Jg2JnqgivAytyahi90kR-21" value="pod" style="text;html=1;strokeColor=none;fillColor=none;align=center;verticalAlign=middle;whiteSpace=wrap;rounded=0;" vertex="1" parent="1">
          <mxGeometry x="335" y="438" width="60" height="30" as="geometry" />
        </mxCell>
        <mxCell id="Jg2JnqgivAytyahi90kR-22" value="2" style="ellipse;whiteSpace=wrap;html=1;aspect=fixed;fontSize=13;fontStyle=1" vertex="1" parent="1">
          <mxGeometry x="550" y="280" width="30" height="30" as="geometry" />
        </mxCell>
        <mxCell id="Jg2JnqgivAytyahi90kR-25" style="edgeStyle=orthogonalEdgeStyle;rounded=0;orthogonalLoop=1;jettySize=auto;html=1;exitX=0.5;exitY=0;exitDx=0;exitDy=0;exitPerimeter=0;entryX=0.005;entryY=0.63;entryDx=0;entryDy=0;entryPerimeter=0;" edge="1" parent="1" source="Jg2JnqgivAytyahi90kR-23" target="Jg2JnqgivAytyahi90kR-5">
          <mxGeometry relative="1" as="geometry" />
        </mxCell>
        <mxCell id="Jg2JnqgivAytyahi90kR-27" style="edgeStyle=orthogonalEdgeStyle;rounded=0;orthogonalLoop=1;jettySize=auto;html=1;exitX=0.995;exitY=0.63;exitDx=0;exitDy=0;exitPerimeter=0;entryX=0.005;entryY=0.63;entryDx=0;entryDy=0;entryPerimeter=0;" edge="1" parent="1" source="Jg2JnqgivAytyahi90kR-23" target="Jg2JnqgivAytyahi90kR-6">
          <mxGeometry relative="1" as="geometry" />
        </mxCell>
        <mxCell id="Jg2JnqgivAytyahi90kR-23" value="" style="sketch=0;html=1;dashed=0;whitespace=wrap;fillColor=#2875E2;strokeColor=#ffffff;points=[[0.005,0.63,0],[0.1,0.2,0],[0.9,0.2,0],[0.5,0,0],[0.995,0.63,0],[0.72,0.99,0],[0.5,1,0],[0.28,0.99,0]];verticalLabelPosition=bottom;align=center;verticalAlign=top;shape=mxgraph.kubernetes.icon;prIcon=svc" vertex="1" parent="1">
          <mxGeometry x="210" y="310" width="50" height="48" as="geometry" />
        </mxCell>
        <mxCell id="Jg2JnqgivAytyahi90kR-26" style="edgeStyle=orthogonalEdgeStyle;rounded=0;orthogonalLoop=1;jettySize=auto;html=1;exitX=0.5;exitY=0;exitDx=0;exitDy=0;entryX=0.005;entryY=0.63;entryDx=0;entryDy=0;entryPerimeter=0;" edge="1" parent="1" source="Jg2JnqgivAytyahi90kR-24" target="Jg2JnqgivAytyahi90kR-7">
          <mxGeometry relative="1" as="geometry">
            <Array as="points">
              <mxPoint x="235" y="420" />
            </Array>
          </mxGeometry>
        </mxCell>
        <mxCell id="Jg2JnqgivAytyahi90kR-24" value="service" style="text;html=1;strokeColor=none;fillColor=none;align=center;verticalAlign=middle;whiteSpace=wrap;rounded=0;" vertex="1" parent="1">
          <mxGeometry x="205" y="358" width="60" height="30" as="geometry" />
        </mxCell>
        <mxCell id="Jg2JnqgivAytyahi90kR-29" style="edgeStyle=orthogonalEdgeStyle;rounded=0;orthogonalLoop=1;jettySize=auto;html=1;entryX=0.005;entryY=0.63;entryDx=0;entryDy=0;entryPerimeter=0;" edge="1" parent="1" source="Jg2JnqgivAytyahi90kR-28" target="Jg2JnqgivAytyahi90kR-23">
          <mxGeometry relative="1" as="geometry" />
        </mxCell>
        <mxCell id="Jg2JnqgivAytyahi90kR-28" value="" style="sketch=0;html=1;dashed=0;whitespace=wrap;fillColor=#2875E2;strokeColor=#ffffff;points=[[0.005,0.63,0],[0.1,0.2,0],[0.9,0.2,0],[0.5,0,0],[0.995,0.63,0],[0.72,0.99,0],[0.5,1,0],[0.28,0.99,0]];verticalLabelPosition=bottom;align=center;verticalAlign=top;shape=mxgraph.kubernetes.icon;prIcon=ing" vertex="1" parent="1">
          <mxGeometry x="90" y="316" width="50" height="48" as="geometry" />
        </mxCell>
        <mxCell id="Jg2JnqgivAytyahi90kR-30" value="dotnetapp.deploy.yaml" style="text;html=1;strokeColor=none;fillColor=none;align=left;verticalAlign=middle;whiteSpace=wrap;rounded=0;" vertex="1" parent="1">
          <mxGeometry x="45" y="630" width="60" height="30" as="geometry" />
        </mxCell>
        <mxCell id="Jg2JnqgivAytyahi90kR-31" value="dotnetapp.configmap.yaml" style="text;html=1;strokeColor=none;fillColor=none;align=left;verticalAlign=middle;whiteSpace=wrap;rounded=0;" vertex="1" parent="1">
          <mxGeometry x="45" y="600" width="60" height="30" as="geometry" />
        </mxCell>
        <mxCell id="Jg2JnqgivAytyahi90kR-32" value="dotnetapp.service.yaml" style="text;html=1;strokeColor=none;fillColor=none;align=left;verticalAlign=middle;whiteSpace=wrap;rounded=0;" vertex="1" parent="1">
          <mxGeometry x="45" y="660" width="60" height="30" as="geometry" />
        </mxCell>
        <mxCell id="Jg2JnqgivAytyahi90kR-33" value="dotnetapp.ingress.yaml" style="text;html=1;strokeColor=none;fillColor=none;align=left;verticalAlign=middle;whiteSpace=wrap;rounded=0;" vertex="1" parent="1">
          <mxGeometry x="45" y="690" width="60" height="30" as="geometry" />
        </mxCell>
        <mxCell id="Jg2JnqgivAytyahi90kR-37" value="ingress" style="text;html=1;strokeColor=none;fillColor=none;align=center;verticalAlign=middle;whiteSpace=wrap;rounded=0;" vertex="1" parent="1">
          <mxGeometry x="85" y="364" width="60" height="30" as="geometry" />
        </mxCell>
      </root>
    </mxGraphModel>
  </diagram>
</mxfile>
